<mxfile host="65bd71144e">
    <diagram id="6gfDzhR8UG0JMTbnyaS-" name="Page-1">
        <mxGraphModel dx="1439" dy="215" grid="1" gridSize="10" guides="1" tooltips="1" connect="1" arrows="1" fold="1" page="1" pageScale="1" pageWidth="850" pageHeight="1100" math="0" shadow="0">
            <root>
                <mxCell id="0"/>
                <mxCell id="1" parent="0"/>
                <mxCell id="19" style="edgeStyle=none;html=1;exitX=0.5;exitY=0;exitDx=0;exitDy=0;entryX=0.5;entryY=1;entryDx=0;entryDy=0;endArrow=none;endFill=0;strokeColor=#5C068C;" parent="1" source="5" target="17" edge="1">
                    <mxGeometry relative="1" as="geometry"/>
                </mxCell>
                <mxCell id="35" style="edgeStyle=none;html=1;exitX=1;exitY=0.5;exitDx=0;exitDy=0;entryX=0;entryY=0.5;entryDx=0;entryDy=0;endArrow=none;endFill=0;" edge="1" parent="1" source="5" target="25">
                    <mxGeometry relative="1" as="geometry"/>
                </mxCell>
                <mxCell id="49" style="edgeStyle=none;html=1;exitX=0.25;exitY=0;exitDx=0;exitDy=0;entryX=1;entryY=1;entryDx=0;entryDy=0;endArrow=none;endFill=0;" edge="1" parent="1" source="5" target="45">
                    <mxGeometry relative="1" as="geometry"/>
                </mxCell>
                <mxCell id="5" value="Género" style="rounded=0;whiteSpace=wrap;html=1;fillColor=#e1d5e7;strokeColor=#9673a6;" parent="1" vertex="1">
                    <mxGeometry y="400" width="120" height="40" as="geometry"/>
                </mxCell>
                <mxCell id="6" style="edgeStyle=none;html=1;exitX=0.25;exitY=0;exitDx=0;exitDy=0;entryX=0.5;entryY=1;entryDx=0;entryDy=0;strokeColor=#5C068C;endArrow=none;endFill=0;" parent="1" source="16" target="10" edge="1">
                    <mxGeometry relative="1" as="geometry">
                        <mxPoint x="30" y="200" as="sourcePoint"/>
                    </mxGeometry>
                </mxCell>
                <mxCell id="7" style="edgeStyle=none;html=1;exitX=0.5;exitY=0;exitDx=0;exitDy=0;entryX=0.5;entryY=1;entryDx=0;entryDy=0;strokeColor=#5C068C;endArrow=none;endFill=0;" parent="1" source="16" target="11" edge="1">
                    <mxGeometry relative="1" as="geometry">
                        <mxPoint x="60" y="200" as="sourcePoint"/>
                    </mxGeometry>
                </mxCell>
                <mxCell id="8" style="edgeStyle=none;html=1;entryX=0;entryY=1;entryDx=0;entryDy=0;strokeColor=#5C068C;endArrow=none;endFill=0;" parent="1" target="12" edge="1">
                    <mxGeometry relative="1" as="geometry">
                        <mxPoint x="90" y="200" as="sourcePoint"/>
                        <mxPoint x="140" y="160" as="targetPoint"/>
                    </mxGeometry>
                </mxCell>
                <mxCell id="10" value="Nombre" style="ellipse;whiteSpace=wrap;html=1;aspect=fixed;fillColor=#5C068C;fontColor=#000000;strokeColor=#3700CC;verticalAlign=bottom;labelPosition=center;verticalLabelPosition=top;align=center;" parent="1" vertex="1">
                    <mxGeometry x="-40" y="120" width="40" height="40" as="geometry"/>
                </mxCell>
                <mxCell id="11" value="Características" style="ellipse;whiteSpace=wrap;html=1;aspect=fixed;fillColor=#e1d5e7;strokeColor=#9673a6;verticalAlign=bottom;labelPosition=center;verticalLabelPosition=top;align=center;" parent="1" vertex="1">
                    <mxGeometry x="40" y="120" width="40" height="40" as="geometry"/>
                </mxCell>
                <mxCell id="41" style="edgeStyle=none;html=1;exitX=1;exitY=0;exitDx=0;exitDy=0;entryX=0;entryY=0.5;entryDx=0;entryDy=0;endArrow=none;endFill=0;" edge="1" parent="1" source="12" target="39">
                    <mxGeometry relative="1" as="geometry"/>
                </mxCell>
                <mxCell id="42" style="edgeStyle=none;html=1;exitX=1;exitY=1;exitDx=0;exitDy=0;entryX=0;entryY=0.5;entryDx=0;entryDy=0;endArrow=none;endFill=0;" edge="1" parent="1" source="12" target="40">
                    <mxGeometry relative="1" as="geometry"/>
                </mxCell>
                <mxCell id="12" value="Período" style="ellipse;whiteSpace=wrap;html=1;aspect=fixed;fillColor=#e1d5e7;strokeColor=#9673a6;verticalAlign=bottom;labelPosition=center;verticalLabelPosition=top;align=center;" parent="1" vertex="1">
                    <mxGeometry x="120" y="120" width="40" height="40" as="geometry"/>
                </mxCell>
                <mxCell id="16" value="Época" style="rounded=0;whiteSpace=wrap;html=1;fillColor=#e1d5e7;strokeColor=#9673a6;" parent="1" vertex="1">
                    <mxGeometry y="200" width="120" height="40" as="geometry"/>
                </mxCell>
                <mxCell id="20" style="edgeStyle=none;html=1;entryX=0.5;entryY=1;entryDx=0;entryDy=0;endArrow=none;endFill=0;strokeColor=#5C068C;" parent="1" source="17" target="16" edge="1">
                    <mxGeometry relative="1" as="geometry"/>
                </mxCell>
                <mxCell id="17" value="tiene" style="rhombus;whiteSpace=wrap;html=1;fillColor=#fff2cc;strokeColor=#d6b656;" parent="1" vertex="1">
                    <mxGeometry x="20" y="280" width="80" height="80" as="geometry"/>
                </mxCell>
                <mxCell id="24" value="Obra famosa" style="rounded=0;whiteSpace=wrap;html=1;fillColor=#e1d5e7;strokeColor=#9673a6;" vertex="1" parent="1">
                    <mxGeometry x="360" y="600" width="120" height="40" as="geometry"/>
                </mxCell>
                <mxCell id="36" style="edgeStyle=none;html=1;exitX=0.5;exitY=1;exitDx=0;exitDy=0;entryX=0.5;entryY=0;entryDx=0;entryDy=0;endArrow=none;endFill=0;" edge="1" parent="1" source="25" target="24">
                    <mxGeometry relative="1" as="geometry"/>
                </mxCell>
                <mxCell id="25" value="posee" style="rhombus;whiteSpace=wrap;html=1;fillColor=#fff2cc;strokeColor=#d6b656;" vertex="1" parent="1">
                    <mxGeometry x="380" y="380" width="80" height="80" as="geometry"/>
                </mxCell>
                <mxCell id="71" style="edgeStyle=none;html=1;exitX=0.75;exitY=1;exitDx=0;exitDy=0;entryX=0.5;entryY=0;entryDx=0;entryDy=0;endArrow=none;endFill=0;" edge="1" parent="1" source="27" target="70">
                    <mxGeometry relative="1" as="geometry"/>
                </mxCell>
                <mxCell id="72" style="edgeStyle=none;html=1;exitX=0.5;exitY=1;exitDx=0;exitDy=0;entryX=0.5;entryY=0;entryDx=0;entryDy=0;endArrow=none;endFill=0;" edge="1" parent="1" source="27" target="69">
                    <mxGeometry relative="1" as="geometry"/>
                </mxCell>
                <mxCell id="73" style="edgeStyle=none;html=1;exitX=0.25;exitY=1;exitDx=0;exitDy=0;entryX=0.5;entryY=0;entryDx=0;entryDy=0;endArrow=none;endFill=0;" edge="1" parent="1" source="27" target="66">
                    <mxGeometry relative="1" as="geometry"/>
                </mxCell>
                <mxCell id="27" value="Músico" style="rounded=0;whiteSpace=wrap;html=1;fillColor=#e1d5e7;strokeColor=#9673a6;" vertex="1" parent="1">
                    <mxGeometry y="600" width="120" height="40" as="geometry"/>
                </mxCell>
                <mxCell id="33" style="edgeStyle=none;html=1;exitX=0.5;exitY=1;exitDx=0;exitDy=0;entryX=0.5;entryY=0;entryDx=0;entryDy=0;endArrow=none;endFill=0;" edge="1" parent="1" source="28" target="27">
                    <mxGeometry relative="1" as="geometry"/>
                </mxCell>
                <mxCell id="34" style="edgeStyle=none;html=1;exitX=0.5;exitY=0;exitDx=0;exitDy=0;entryX=0.5;entryY=1;entryDx=0;entryDy=0;endArrow=none;endFill=0;" edge="1" parent="1" source="28" target="5">
                    <mxGeometry relative="1" as="geometry"/>
                </mxCell>
                <mxCell id="28" value="pertenece" style="rhombus;whiteSpace=wrap;html=1;fillColor=#fff2cc;strokeColor=#d6b656;" vertex="1" parent="1">
                    <mxGeometry x="20" y="480" width="80" height="80" as="geometry"/>
                </mxCell>
                <mxCell id="90" style="edgeStyle=none;html=1;exitX=0.25;exitY=0;exitDx=0;exitDy=0;entryX=0;entryY=1;entryDx=0;entryDy=0;endArrow=none;endFill=0;" edge="1" parent="1" source="29" target="89">
                    <mxGeometry relative="1" as="geometry"/>
                </mxCell>
                <mxCell id="91" style="edgeStyle=none;html=1;exitX=0;exitY=0;exitDx=0;exitDy=0;entryX=1;entryY=1;entryDx=0;entryDy=0;endArrow=none;endFill=0;" edge="1" parent="1" source="29" target="81">
                    <mxGeometry relative="1" as="geometry"/>
                </mxCell>
                <mxCell id="92" style="edgeStyle=none;html=1;exitX=0;exitY=0.5;exitDx=0;exitDy=0;entryX=0.5;entryY=1;entryDx=0;entryDy=0;endArrow=none;endFill=0;" edge="1" parent="1" source="29" target="82">
                    <mxGeometry relative="1" as="geometry"/>
                </mxCell>
                <mxCell id="93" style="edgeStyle=none;html=1;exitX=0;exitY=1;exitDx=0;exitDy=0;entryX=1;entryY=0;entryDx=0;entryDy=0;endArrow=none;endFill=0;" edge="1" parent="1" source="29" target="86">
                    <mxGeometry relative="1" as="geometry"/>
                </mxCell>
                <mxCell id="96" style="edgeStyle=none;html=1;exitX=0.25;exitY=1;exitDx=0;exitDy=0;entryX=1;entryY=0.5;entryDx=0;entryDy=0;endArrow=none;endFill=0;" edge="1" parent="1" source="29" target="87">
                    <mxGeometry relative="1" as="geometry"/>
                </mxCell>
                <mxCell id="97" style="edgeStyle=none;html=1;exitX=0.5;exitY=1;exitDx=0;exitDy=0;entryX=1;entryY=0.5;entryDx=0;entryDy=0;endArrow=none;endFill=0;" edge="1" parent="1" source="29" target="88">
                    <mxGeometry relative="1" as="geometry"/>
                </mxCell>
                <mxCell id="29" value="Instrumento" style="rounded=0;whiteSpace=wrap;html=1;fillColor=#e1d5e7;strokeColor=#9673a6;" vertex="1" parent="1">
                    <mxGeometry x="-280" y="600" width="120" height="40" as="geometry"/>
                </mxCell>
                <mxCell id="31" style="edgeStyle=none;html=1;exitX=1;exitY=0.5;exitDx=0;exitDy=0;entryX=0;entryY=0.5;entryDx=0;entryDy=0;endArrow=none;endFill=0;" edge="1" parent="1" source="30" target="5">
                    <mxGeometry relative="1" as="geometry"/>
                </mxCell>
                <mxCell id="32" style="edgeStyle=none;html=1;exitX=0.5;exitY=1;exitDx=0;exitDy=0;entryX=0.5;entryY=0;entryDx=0;entryDy=0;endArrow=none;endFill=0;" edge="1" parent="1" source="30" target="29">
                    <mxGeometry relative="1" as="geometry"/>
                </mxCell>
                <mxCell id="30" value="se usan" style="rhombus;whiteSpace=wrap;html=1;fillColor=#fff2cc;strokeColor=#d6b656;" vertex="1" parent="1">
                    <mxGeometry x="-260" y="380" width="80" height="80" as="geometry"/>
                </mxCell>
                <mxCell id="38" value="" style="ellipse;whiteSpace=wrap;html=1;aspect=fixed;fillColor=#e1d5e7;strokeColor=#9673a6;verticalAlign=bottom;labelPosition=center;verticalLabelPosition=top;align=center;" vertex="1" parent="1">
                    <mxGeometry x="50" y="130" width="20" height="20" as="geometry"/>
                </mxCell>
                <mxCell id="39" value="Comienzo" style="ellipse;whiteSpace=wrap;html=1;aspect=fixed;fillColor=#e1d5e7;strokeColor=#9673a6;verticalAlign=bottom;labelPosition=center;verticalLabelPosition=top;align=center;" vertex="1" parent="1">
                    <mxGeometry x="200" y="80" width="40" height="40" as="geometry"/>
                </mxCell>
                <mxCell id="40" value="Fin" style="ellipse;whiteSpace=wrap;html=1;aspect=fixed;fillColor=#e1d5e7;strokeColor=#9673a6;verticalAlign=bottom;labelPosition=center;verticalLabelPosition=top;align=center;" vertex="1" parent="1">
                    <mxGeometry x="200" y="160" width="40" height="40" as="geometry"/>
                </mxCell>
                <mxCell id="43" value="(1,1)" style="text;html=1;strokeColor=none;fillColor=none;align=center;verticalAlign=middle;whiteSpace=wrap;rounded=0;" vertex="1" parent="1">
                    <mxGeometry x="60" y="240" width="60" height="30" as="geometry"/>
                </mxCell>
                <mxCell id="48" style="edgeStyle=none;html=1;exitX=0.5;exitY=1;exitDx=0;exitDy=0;entryX=-0.5;entryY=1.5;entryDx=0;entryDy=0;entryPerimeter=0;endArrow=none;endFill=0;" edge="1" parent="1" source="44" target="47">
                    <mxGeometry relative="1" as="geometry"/>
                </mxCell>
                <mxCell id="52" style="edgeStyle=none;html=1;exitX=0.75;exitY=1;exitDx=0;exitDy=0;entryX=0.5;entryY=1;entryDx=0;entryDy=0;endArrow=none;endFill=0;" edge="1" parent="1" source="44" target="50">
                    <mxGeometry relative="1" as="geometry"/>
                </mxCell>
                <mxCell id="44" value="(1,n)" style="text;html=1;strokeColor=none;fillColor=none;align=center;verticalAlign=middle;whiteSpace=wrap;rounded=0;" vertex="1" parent="1">
                    <mxGeometry x="46" y="370" width="60" height="30" as="geometry"/>
                </mxCell>
                <mxCell id="45" value="Nombre" style="ellipse;whiteSpace=wrap;html=1;aspect=fixed;fillColor=#5C068C;fontColor=#000000;strokeColor=#3700CC;verticalAlign=bottom;labelPosition=center;verticalLabelPosition=top;align=center;" vertex="1" parent="1">
                    <mxGeometry x="-40" y="320" width="40" height="40" as="geometry"/>
                </mxCell>
                <mxCell id="46" value="Características" style="ellipse;whiteSpace=wrap;html=1;aspect=fixed;fillColor=#e1d5e7;strokeColor=#9673a6;verticalAlign=bottom;labelPosition=center;verticalLabelPosition=top;align=center;" vertex="1" parent="1">
                    <mxGeometry x="120" y="320" width="40" height="40" as="geometry"/>
                </mxCell>
                <mxCell id="47" value="" style="ellipse;whiteSpace=wrap;html=1;aspect=fixed;fillColor=#e1d5e7;strokeColor=#9673a6;verticalAlign=bottom;labelPosition=center;verticalLabelPosition=top;align=center;" vertex="1" parent="1">
                    <mxGeometry x="130" y="330" width="20" height="20" as="geometry"/>
                </mxCell>
                <mxCell id="50" value="Origen" style="ellipse;whiteSpace=wrap;html=1;aspect=fixed;fillColor=#e1d5e7;strokeColor=#9673a6;verticalAlign=bottom;labelPosition=center;verticalLabelPosition=top;align=center;direction=north;" vertex="1" parent="1">
                    <mxGeometry x="180" y="365" width="40" height="40" as="geometry"/>
                </mxCell>
                <mxCell id="51" value="" style="ellipse;whiteSpace=wrap;html=1;aspect=fixed;fillColor=#e1d5e7;strokeColor=#9673a6;verticalAlign=bottom;labelPosition=center;verticalLabelPosition=top;align=center;" vertex="1" parent="1">
                    <mxGeometry x="190" y="375" width="20" height="20" as="geometry"/>
                </mxCell>
                <mxCell id="55" value="(1,1)" style="text;html=1;strokeColor=none;fillColor=none;align=center;verticalAlign=middle;whiteSpace=wrap;rounded=0;" vertex="1" parent="1">
                    <mxGeometry x="120" y="420" width="60" height="30" as="geometry"/>
                </mxCell>
                <mxCell id="56" value="(1,n)" style="text;html=1;strokeColor=none;fillColor=none;align=center;verticalAlign=middle;whiteSpace=wrap;rounded=0;" vertex="1" parent="1">
                    <mxGeometry x="420" y="570" width="60" height="30" as="geometry"/>
                </mxCell>
                <mxCell id="57" value="(1,n)" style="text;html=1;strokeColor=none;fillColor=none;align=center;verticalAlign=middle;whiteSpace=wrap;rounded=0;" vertex="1" parent="1">
                    <mxGeometry x="60" y="570" width="60" height="30" as="geometry"/>
                </mxCell>
                <mxCell id="58" value="(1,1)" style="text;html=1;strokeColor=none;fillColor=none;align=center;verticalAlign=middle;whiteSpace=wrap;rounded=0;" vertex="1" parent="1">
                    <mxGeometry x="60" y="440" width="60" height="30" as="geometry"/>
                </mxCell>
                <mxCell id="59" value="(1,n)" style="text;html=1;strokeColor=none;fillColor=none;align=center;verticalAlign=middle;whiteSpace=wrap;rounded=0;" vertex="1" parent="1">
                    <mxGeometry x="-60" y="420" width="60" height="30" as="geometry"/>
                </mxCell>
                <mxCell id="60" value="(1,n)" style="text;html=1;strokeColor=none;fillColor=none;align=center;verticalAlign=middle;whiteSpace=wrap;rounded=0;" vertex="1" parent="1">
                    <mxGeometry x="-220" y="570" width="60" height="30" as="geometry"/>
                </mxCell>
                <mxCell id="62" style="edgeStyle=none;html=1;exitX=0;exitY=0.5;exitDx=0;exitDy=0;entryX=1;entryY=0.5;entryDx=0;entryDy=0;endArrow=none;endFill=0;" edge="1" parent="1" source="61" target="27">
                    <mxGeometry relative="1" as="geometry"/>
                </mxCell>
                <mxCell id="63" style="edgeStyle=none;html=1;exitX=1;exitY=0.5;exitDx=0;exitDy=0;entryX=0;entryY=0.5;entryDx=0;entryDy=0;endArrow=none;endFill=0;" edge="1" parent="1" source="61" target="24">
                    <mxGeometry relative="1" as="geometry"/>
                </mxCell>
                <mxCell id="61" value="compone" style="rhombus;whiteSpace=wrap;html=1;fillColor=#fff2cc;strokeColor=#d6b656;" vertex="1" parent="1">
                    <mxGeometry x="200" y="580" width="80" height="80" as="geometry"/>
                </mxCell>
                <mxCell id="64" value="(1,n)" style="text;html=1;strokeColor=none;fillColor=none;align=center;verticalAlign=middle;whiteSpace=wrap;rounded=0;" vertex="1" parent="1">
                    <mxGeometry x="120" y="620" width="60" height="30" as="geometry"/>
                </mxCell>
                <mxCell id="65" value="(1,n)" style="text;html=1;strokeColor=none;fillColor=none;align=center;verticalAlign=middle;whiteSpace=wrap;rounded=0;" vertex="1" parent="1">
                    <mxGeometry x="300" y="620" width="60" height="30" as="geometry"/>
                </mxCell>
                <mxCell id="66" value="Fecha muerte" style="ellipse;whiteSpace=wrap;html=1;aspect=fixed;fillColor=#e1d5e7;strokeColor=#9673a6;verticalAlign=top;labelPosition=center;verticalLabelPosition=bottom;align=center;" vertex="1" parent="1">
                    <mxGeometry x="-40" y="720" width="40" height="40" as="geometry"/>
                </mxCell>
                <mxCell id="74" style="edgeStyle=none;html=1;exitX=0.5;exitY=0;exitDx=0;exitDy=0;entryX=0;entryY=1;entryDx=0;entryDy=0;endArrow=none;endFill=0;" edge="1" parent="1" source="68" target="27">
                    <mxGeometry relative="1" as="geometry"/>
                </mxCell>
                <mxCell id="68" value="Fecha nacimiento" style="ellipse;whiteSpace=wrap;html=1;aspect=fixed;fillColor=#e1d5e7;strokeColor=#9673a6;verticalAlign=top;labelPosition=center;verticalLabelPosition=bottom;align=center;" vertex="1" parent="1">
                    <mxGeometry x="-120" y="720" width="40" height="40" as="geometry"/>
                </mxCell>
                <mxCell id="69" value="Nombre" style="ellipse;whiteSpace=wrap;html=1;aspect=fixed;fillColor=#5C068C;strokeColor=#9673a6;verticalAlign=top;labelPosition=center;verticalLabelPosition=bottom;align=center;" vertex="1" parent="1">
                    <mxGeometry x="40" y="720" width="40" height="40" as="geometry"/>
                </mxCell>
                <mxCell id="70" value="Historia de vida" style="ellipse;whiteSpace=wrap;html=1;aspect=fixed;fillColor=#e1d5e7;strokeColor=#9673a6;verticalAlign=top;labelPosition=center;verticalLabelPosition=bottom;align=center;" vertex="1" parent="1">
                    <mxGeometry x="120" y="720" width="40" height="40" as="geometry"/>
                </mxCell>
                <mxCell id="79" style="edgeStyle=none;html=1;exitX=0.5;exitY=0;exitDx=0;exitDy=0;entryX=0.5;entryY=1;entryDx=0;entryDy=0;endArrow=none;endFill=0;" edge="1" parent="1" source="75" target="24">
                    <mxGeometry relative="1" as="geometry"/>
                </mxCell>
                <mxCell id="75" value="Partitura" style="ellipse;whiteSpace=wrap;html=1;aspect=fixed;fillColor=#e1d5e7;strokeColor=#9673a6;verticalAlign=top;labelPosition=center;verticalLabelPosition=bottom;align=center;" vertex="1" parent="1">
                    <mxGeometry x="400" y="720" width="40" height="40" as="geometry"/>
                </mxCell>
                <mxCell id="78" style="edgeStyle=none;html=1;exitX=0.5;exitY=0;exitDx=0;exitDy=0;entryX=0.25;entryY=1;entryDx=0;entryDy=0;endArrow=none;endFill=0;" edge="1" parent="1" source="76" target="24">
                    <mxGeometry relative="1" as="geometry"/>
                </mxCell>
                <mxCell id="76" value="Año creación" style="ellipse;whiteSpace=wrap;html=1;aspect=fixed;fillColor=#e1d5e7;strokeColor=#9673a6;verticalAlign=top;labelPosition=center;verticalLabelPosition=bottom;align=center;" vertex="1" parent="1">
                    <mxGeometry x="320" y="720" width="40" height="40" as="geometry"/>
                </mxCell>
                <mxCell id="80" style="edgeStyle=none;html=1;exitX=0.5;exitY=0;exitDx=0;exitDy=0;entryX=0.75;entryY=1;entryDx=0;entryDy=0;endArrow=none;endFill=0;" edge="1" parent="1" source="77" target="24">
                    <mxGeometry relative="1" as="geometry"/>
                </mxCell>
                <mxCell id="77" value="Nombre de obra" style="ellipse;whiteSpace=wrap;html=1;aspect=fixed;fillColor=#5C068C;strokeColor=#9673a6;verticalAlign=top;labelPosition=center;verticalLabelPosition=bottom;align=center;" vertex="1" parent="1">
                    <mxGeometry x="480" y="720" width="40" height="40" as="geometry"/>
                </mxCell>
                <mxCell id="81" value="Creador" style="ellipse;whiteSpace=wrap;html=1;aspect=fixed;fillColor=#e1d5e7;strokeColor=#9673a6;verticalAlign=middle;labelPosition=left;verticalLabelPosition=middle;align=right;" vertex="1" parent="1">
                    <mxGeometry x="-400" y="520" width="40" height="40" as="geometry"/>
                </mxCell>
                <mxCell id="82" value="Material" style="ellipse;whiteSpace=wrap;html=1;aspect=fixed;fillColor=#e1d5e7;strokeColor=#9673a6;verticalAlign=middle;labelPosition=left;verticalLabelPosition=middle;align=right;direction=north;" vertex="1" parent="1">
                    <mxGeometry x="-400" y="600" width="40" height="40" as="geometry"/>
                </mxCell>
                <mxCell id="83" value="" style="ellipse;whiteSpace=wrap;html=1;aspect=fixed;fillColor=#e1d5e7;strokeColor=#9673a6;verticalAlign=bottom;labelPosition=center;verticalLabelPosition=top;align=center;" vertex="1" parent="1">
                    <mxGeometry x="-390" y="610" width="20" height="20" as="geometry"/>
                </mxCell>
                <mxCell id="86" value="Nombre" style="ellipse;whiteSpace=wrap;html=1;aspect=fixed;fillColor=#5C068C;fontColor=#000000;strokeColor=#3700CC;verticalAlign=middle;labelPosition=left;verticalLabelPosition=middle;align=right;" vertex="1" parent="1">
                    <mxGeometry x="-400" y="680" width="40" height="40" as="geometry"/>
                </mxCell>
                <mxCell id="87" value="Foto" style="ellipse;whiteSpace=wrap;html=1;aspect=fixed;fillColor=#e1d5e7;strokeColor=#9673a6;verticalAlign=top;labelPosition=center;verticalLabelPosition=bottom;align=center;direction=north;" vertex="1" parent="1">
                    <mxGeometry x="-320" y="720" width="40" height="40" as="geometry"/>
                </mxCell>
                <mxCell id="88" value="Lugar creación" style="ellipse;whiteSpace=wrap;html=1;aspect=fixed;fillColor=#e1d5e7;strokeColor=#9673a6;verticalAlign=top;labelPosition=center;verticalLabelPosition=bottom;align=center;direction=north;" vertex="1" parent="1">
                    <mxGeometry x="-240" y="720" width="40" height="40" as="geometry"/>
                </mxCell>
                <mxCell id="89" value="Tipo" style="ellipse;whiteSpace=wrap;html=1;aspect=fixed;fillColor=#e1d5e7;strokeColor=#9673a6;verticalAlign=top;labelPosition=center;verticalLabelPosition=bottom;align=center;direction=north;" vertex="1" parent="1">
                    <mxGeometry x="-320" y="480" width="40" height="40" as="geometry"/>
                </mxCell>
            </root>
        </mxGraphModel>
    </diagram>
</mxfile>